<?xml version="1.0" encoding="utf-8" standalone="no"?>
<!DOCTYPE svg PUBLIC "-//W3C//DTD SVG 1.1//EN"
  "http://www.w3.org/Graphics/SVG/1.1/DTD/svg11.dtd">
<!-- Created with matplotlib (http://matplotlib.org/) -->
<svg height="345pt" version="1.1" viewBox="0 0 460 345" width="460pt" xmlns="http://www.w3.org/2000/svg" xmlns:xlink="http://www.w3.org/1999/xlink">
 <defs>
  <style type="text/css">
*{stroke-linecap:butt;stroke-linejoin:round;}
  </style>
 </defs>
 <g id="figure_1">
  <g id="patch_1">
   <path d="M 0 345.6 
L 460.8 345.6 
L 460.8 0 
L 0 0 
z
" style="fill:#ffffff;"/>
  </g>
  <g id="axes_1">
   <g id="patch_2">
    <path d="M 57.6 307.584 
L 414.72 307.584 
L 414.72 41.472 
L 57.6 41.472 
z
" style="fill:#ffffff;"/>
   </g>
   <g id="matplotlib.axis_1">
    <g id="xtick_1">
     <g id="line2d_1">
      <defs>
       <path d="M 0 0 
L 0 3.5 
" id="m23e0a6d3b6" style="stroke:#000000;stroke-width:0.8;"/>
      </defs>
      <g>
       <use style="stroke:#000000;stroke-width:0.8;" x="103.346777" xlink:href="#m23e0a6d3b6" y="307.584"/>
      </g>
     </g>
     <g id="text_1">
      <!-- 2 -->
      <defs>
       <path d="M 19.1875 8.296875 
L 53.609375 8.296875 
L 53.609375 0 
L 7.328125 0 
L 7.328125 8.296875 
Q 12.9375 14.109375 22.625 23.890625 
Q 32.328125 33.6875 34.8125 36.53125 
Q 39.546875 41.84375 41.421875 45.53125 
Q 43.3125 49.21875 43.3125 52.78125 
Q 43.3125 58.59375 39.234375 62.25 
Q 35.15625 65.921875 28.609375 65.921875 
Q 23.96875 65.921875 18.8125 64.3125 
Q 13.671875 62.703125 7.8125 59.421875 
L 7.8125 69.390625 
Q 13.765625 71.78125 18.9375 73 
Q 24.125 74.21875 28.421875 74.21875 
Q 39.75 74.21875 46.484375 68.546875 
Q 53.21875 62.890625 53.21875 53.421875 
Q 53.21875 48.921875 51.53125 44.890625 
Q 49.859375 40.875 45.40625 35.40625 
Q 44.1875 33.984375 37.640625 27.21875 
Q 31.109375 20.453125 19.1875 8.296875 
z
" id="DejaVuSans-32"/>
      </defs>
      <g transform="translate(100.165527 322.182437)scale(0.1 -0.1)">
       <use xlink:href="#DejaVuSans-32"/>
      </g>
     </g>
    </g>
    <g id="xtick_2">
     <g id="line2d_2">
      <g>
       <use style="stroke:#000000;stroke-width:0.8;" x="162.374876" xlink:href="#m23e0a6d3b6" y="307.584"/>
      </g>
     </g>
     <g id="text_2">
      <!-- 4 -->
      <defs>
       <path d="M 37.796875 64.3125 
L 12.890625 25.390625 
L 37.796875 25.390625 
z
M 35.203125 72.90625 
L 47.609375 72.90625 
L 47.609375 25.390625 
L 58.015625 25.390625 
L 58.015625 17.1875 
L 47.609375 17.1875 
L 47.609375 0 
L 37.796875 0 
L 37.796875 17.1875 
L 4.890625 17.1875 
L 4.890625 26.703125 
z
" id="DejaVuSans-34"/>
      </defs>
      <g transform="translate(159.193626 322.182437)scale(0.1 -0.1)">
       <use xlink:href="#DejaVuSans-34"/>
      </g>
     </g>
    </g>
    <g id="xtick_3">
     <g id="line2d_3">
      <g>
       <use style="stroke:#000000;stroke-width:0.8;" x="221.402975" xlink:href="#m23e0a6d3b6" y="307.584"/>
      </g>
     </g>
     <g id="text_3">
      <!-- 6 -->
      <defs>
       <path d="M 33.015625 40.375 
Q 26.375 40.375 22.484375 35.828125 
Q 18.609375 31.296875 18.609375 23.390625 
Q 18.609375 15.53125 22.484375 10.953125 
Q 26.375 6.390625 33.015625 6.390625 
Q 39.65625 6.390625 43.53125 10.953125 
Q 47.40625 15.53125 47.40625 23.390625 
Q 47.40625 31.296875 43.53125 35.828125 
Q 39.65625 40.375 33.015625 40.375 
z
M 52.59375 71.296875 
L 52.59375 62.3125 
Q 48.875 64.0625 45.09375 64.984375 
Q 41.3125 65.921875 37.59375 65.921875 
Q 27.828125 65.921875 22.671875 59.328125 
Q 17.53125 52.734375 16.796875 39.40625 
Q 19.671875 43.65625 24.015625 45.921875 
Q 28.375 48.1875 33.59375 48.1875 
Q 44.578125 48.1875 50.953125 41.515625 
Q 57.328125 34.859375 57.328125 23.390625 
Q 57.328125 12.15625 50.6875 5.359375 
Q 44.046875 -1.421875 33.015625 -1.421875 
Q 20.359375 -1.421875 13.671875 8.265625 
Q 6.984375 17.96875 6.984375 36.375 
Q 6.984375 53.65625 15.1875 63.9375 
Q 23.390625 74.21875 37.203125 74.21875 
Q 40.921875 74.21875 44.703125 73.484375 
Q 48.484375 72.75 52.59375 71.296875 
z
" id="DejaVuSans-36"/>
      </defs>
      <g transform="translate(218.221725 322.182437)scale(0.1 -0.1)">
       <use xlink:href="#DejaVuSans-36"/>
      </g>
     </g>
    </g>
    <g id="xtick_4">
     <g id="line2d_4">
      <g>
       <use style="stroke:#000000;stroke-width:0.8;" x="280.431074" xlink:href="#m23e0a6d3b6" y="307.584"/>
      </g>
     </g>
     <g id="text_4">
      <!-- 8 -->
      <defs>
       <path d="M 31.78125 34.625 
Q 24.75 34.625 20.71875 30.859375 
Q 16.703125 27.09375 16.703125 20.515625 
Q 16.703125 13.921875 20.71875 10.15625 
Q 24.75 6.390625 31.78125 6.390625 
Q 38.8125 6.390625 42.859375 10.171875 
Q 46.921875 13.96875 46.921875 20.515625 
Q 46.921875 27.09375 42.890625 30.859375 
Q 38.875 34.625 31.78125 34.625 
z
M 21.921875 38.8125 
Q 15.578125 40.375 12.03125 44.71875 
Q 8.5 49.078125 8.5 55.328125 
Q 8.5 64.0625 14.71875 69.140625 
Q 20.953125 74.21875 31.78125 74.21875 
Q 42.671875 74.21875 48.875 69.140625 
Q 55.078125 64.0625 55.078125 55.328125 
Q 55.078125 49.078125 51.53125 44.71875 
Q 48 40.375 41.703125 38.8125 
Q 48.828125 37.15625 52.796875 32.3125 
Q 56.78125 27.484375 56.78125 20.515625 
Q 56.78125 9.90625 50.3125 4.234375 
Q 43.84375 -1.421875 31.78125 -1.421875 
Q 19.734375 -1.421875 13.25 4.234375 
Q 6.78125 9.90625 6.78125 20.515625 
Q 6.78125 27.484375 10.78125 32.3125 
Q 14.796875 37.15625 21.921875 38.8125 
z
M 18.3125 54.390625 
Q 18.3125 48.734375 21.84375 45.5625 
Q 25.390625 42.390625 31.78125 42.390625 
Q 38.140625 42.390625 41.71875 45.5625 
Q 45.3125 48.734375 45.3125 54.390625 
Q 45.3125 60.0625 41.71875 63.234375 
Q 38.140625 66.40625 31.78125 66.40625 
Q 25.390625 66.40625 21.84375 63.234375 
Q 18.3125 60.0625 18.3125 54.390625 
z
" id="DejaVuSans-38"/>
      </defs>
      <g transform="translate(277.249824 322.182437)scale(0.1 -0.1)">
       <use xlink:href="#DejaVuSans-38"/>
      </g>
     </g>
    </g>
    <g id="xtick_5">
     <g id="line2d_5">
      <g>
       <use style="stroke:#000000;stroke-width:0.8;" x="339.459174" xlink:href="#m23e0a6d3b6" y="307.584"/>
      </g>
     </g>
     <g id="text_5">
      <!-- 10 -->
      <defs>
       <path d="M 12.40625 8.296875 
L 28.515625 8.296875 
L 28.515625 63.921875 
L 10.984375 60.40625 
L 10.984375 69.390625 
L 28.421875 72.90625 
L 38.28125 72.90625 
L 38.28125 8.296875 
L 54.390625 8.296875 
L 54.390625 0 
L 12.40625 0 
z
" id="DejaVuSans-31"/>
       <path d="M 31.78125 66.40625 
Q 24.171875 66.40625 20.328125 58.90625 
Q 16.5 51.421875 16.5 36.375 
Q 16.5 21.390625 20.328125 13.890625 
Q 24.171875 6.390625 31.78125 6.390625 
Q 39.453125 6.390625 43.28125 13.890625 
Q 47.125 21.390625 47.125 36.375 
Q 47.125 51.421875 43.28125 58.90625 
Q 39.453125 66.40625 31.78125 66.40625 
z
M 31.78125 74.21875 
Q 44.046875 74.21875 50.515625 64.515625 
Q 56.984375 54.828125 56.984375 36.375 
Q 56.984375 17.96875 50.515625 8.265625 
Q 44.046875 -1.421875 31.78125 -1.421875 
Q 19.53125 -1.421875 13.0625 8.265625 
Q 6.59375 17.96875 6.59375 36.375 
Q 6.59375 54.828125 13.0625 64.515625 
Q 19.53125 74.21875 31.78125 74.21875 
z
" id="DejaVuSans-30"/>
      </defs>
      <g transform="translate(333.096674 322.182437)scale(0.1 -0.1)">
       <use xlink:href="#DejaVuSans-31"/>
       <use x="63.623047" xlink:href="#DejaVuSans-30"/>
      </g>
     </g>
    </g>
    <g id="xtick_6">
     <g id="line2d_6">
      <g>
       <use style="stroke:#000000;stroke-width:0.8;" x="398.487273" xlink:href="#m23e0a6d3b6" y="307.584"/>
      </g>
     </g>
     <g id="text_6">
      <!-- 12 -->
      <g transform="translate(392.124773 322.182437)scale(0.1 -0.1)">
       <use xlink:href="#DejaVuSans-31"/>
       <use x="63.623047" xlink:href="#DejaVuSans-32"/>
      </g>
     </g>
    </g>
    <g id="text_7">
     <!-- $\sigma/\Delta$ -->
     <defs>
      <path d="M 34.671875 47.5625 
Q 27.25 47.5625 22.21875 42.1875 
Q 16.890625 36.578125 15.140625 27.296875 
Q 13.1875 17.484375 16.3125 11.8125 
Q 19.390625 6.203125 26.65625 6.203125 
Q 33.84375 6.203125 39.109375 11.859375 
Q 44.4375 17.53125 46.34375 27.296875 
Q 48.046875 36.234375 45.015625 42.1875 
Q 42.1875 47.5625 34.671875 47.5625 
z
M 36.078125 54.734375 
L 65.921875 54.6875 
L 64.15625 45.703125 
L 54.109375 45.703125 
Q 57.90625 38.09375 55.859375 27.296875 
Q 53.21875 13.875 45.0625 6.25 
Q 36.859375 -1.421875 25.140625 -1.421875 
Q 13.375 -1.421875 8.203125 6.25 
Q 3.03125 13.875 5.671875 27.296875 
Q 8.25 40.765625 16.40625 48.390625 
Q 23.1875 54.734375 36.078125 54.734375 
z
" id="DejaVuSans-Oblique-3c3"/>
      <path d="M 25.390625 72.90625 
L 33.6875 72.90625 
L 8.296875 -9.28125 
L 0 -9.28125 
z
" id="DejaVuSans-2f"/>
      <path d="M 34.1875 63.1875 
L 14.15625 8.203125 
L 54.25 8.203125 
z
M 0.78125 0 
L 28.609375 72.90625 
L 39.796875 72.90625 
L 67.578125 0 
z
" id="DejaVuSans-394"/>
     </defs>
     <g transform="translate(227.86 335.860562)scale(0.1 -0.1)">
      <use transform="translate(0 0.09375)" xlink:href="#DejaVuSans-Oblique-3c3"/>
      <use transform="translate(63.378906 0.09375)" xlink:href="#DejaVuSans-2f"/>
      <use transform="translate(97.070312 0.09375)" xlink:href="#DejaVuSans-394"/>
     </g>
    </g>
   </g>
   <g id="matplotlib.axis_2">
    <g id="ytick_1">
     <g id="line2d_7">
      <defs>
       <path d="M 0 0 
L -3.5 0 
" id="m04b1fc4190" style="stroke:#000000;stroke-width:0.8;"/>
      </defs>
      <g>
       <use style="stroke:#000000;stroke-width:0.8;" x="57.6" xlink:href="#m04b1fc4190" y="278.208"/>
      </g>
     </g>
     <g id="text_8">
      <!-- 0.40 -->
      <defs>
       <path d="M 10.6875 12.40625 
L 21 12.40625 
L 21 0 
L 10.6875 0 
z
" id="DejaVuSans-2e"/>
      </defs>
      <g transform="translate(28.334375 282.007219)scale(0.1 -0.1)">
       <use xlink:href="#DejaVuSans-30"/>
       <use x="63.623047" xlink:href="#DejaVuSans-2e"/>
       <use x="95.410156" xlink:href="#DejaVuSans-34"/>
       <use x="159.033203" xlink:href="#DejaVuSans-30"/>
      </g>
     </g>
    </g>
    <g id="ytick_2">
     <g id="line2d_8">
      <g>
       <use style="stroke:#000000;stroke-width:0.8;" x="57.6" xlink:href="#m04b1fc4190" y="234.144"/>
      </g>
     </g>
     <g id="text_9">
      <!-- 0.45 -->
      <defs>
       <path d="M 10.796875 72.90625 
L 49.515625 72.90625 
L 49.515625 64.59375 
L 19.828125 64.59375 
L 19.828125 46.734375 
Q 21.96875 47.46875 24.109375 47.828125 
Q 26.265625 48.1875 28.421875 48.1875 
Q 40.625 48.1875 47.75 41.5 
Q 54.890625 34.8125 54.890625 23.390625 
Q 54.890625 11.625 47.5625 5.09375 
Q 40.234375 -1.421875 26.90625 -1.421875 
Q 22.3125 -1.421875 17.546875 -0.640625 
Q 12.796875 0.140625 7.71875 1.703125 
L 7.71875 11.625 
Q 12.109375 9.234375 16.796875 8.0625 
Q 21.484375 6.890625 26.703125 6.890625 
Q 35.15625 6.890625 40.078125 11.328125 
Q 45.015625 15.765625 45.015625 23.390625 
Q 45.015625 31 40.078125 35.4375 
Q 35.15625 39.890625 26.703125 39.890625 
Q 22.75 39.890625 18.8125 39.015625 
Q 14.890625 38.140625 10.796875 36.28125 
z
" id="DejaVuSans-35"/>
      </defs>
      <g transform="translate(28.334375 237.943219)scale(0.1 -0.1)">
       <use xlink:href="#DejaVuSans-30"/>
       <use x="63.623047" xlink:href="#DejaVuSans-2e"/>
       <use x="95.410156" xlink:href="#DejaVuSans-34"/>
       <use x="159.033203" xlink:href="#DejaVuSans-35"/>
      </g>
     </g>
    </g>
    <g id="ytick_3">
     <g id="line2d_9">
      <g>
       <use style="stroke:#000000;stroke-width:0.8;" x="57.6" xlink:href="#m04b1fc4190" y="190.08"/>
      </g>
     </g>
     <g id="text_10">
      <!-- 0.50 -->
      <g transform="translate(28.334375 193.879219)scale(0.1 -0.1)">
       <use xlink:href="#DejaVuSans-30"/>
       <use x="63.623047" xlink:href="#DejaVuSans-2e"/>
       <use x="95.410156" xlink:href="#DejaVuSans-35"/>
       <use x="159.033203" xlink:href="#DejaVuSans-30"/>
      </g>
     </g>
    </g>
    <g id="ytick_4">
     <g id="line2d_10">
      <g>
       <use style="stroke:#000000;stroke-width:0.8;" x="57.6" xlink:href="#m04b1fc4190" y="146.016"/>
      </g>
     </g>
     <g id="text_11">
      <!-- 0.55 -->
      <g transform="translate(28.334375 149.815219)scale(0.1 -0.1)">
       <use xlink:href="#DejaVuSans-30"/>
       <use x="63.623047" xlink:href="#DejaVuSans-2e"/>
       <use x="95.410156" xlink:href="#DejaVuSans-35"/>
       <use x="159.033203" xlink:href="#DejaVuSans-35"/>
      </g>
     </g>
    </g>
    <g id="ytick_5">
     <g id="line2d_11">
      <g>
       <use style="stroke:#000000;stroke-width:0.8;" x="57.6" xlink:href="#m04b1fc4190" y="101.952"/>
      </g>
     </g>
     <g id="text_12">
      <!-- 0.60 -->
      <g transform="translate(28.334375 105.751219)scale(0.1 -0.1)">
       <use xlink:href="#DejaVuSans-30"/>
       <use x="63.623047" xlink:href="#DejaVuSans-2e"/>
       <use x="95.410156" xlink:href="#DejaVuSans-36"/>
       <use x="159.033203" xlink:href="#DejaVuSans-30"/>
      </g>
     </g>
    </g>
    <g id="ytick_6">
     <g id="line2d_12">
      <g>
       <use style="stroke:#000000;stroke-width:0.8;" x="57.6" xlink:href="#m04b1fc4190" y="57.888"/>
      </g>
     </g>
     <g id="text_13">
      <!-- 0.65 -->
      <g transform="translate(28.334375 61.687219)scale(0.1 -0.1)">
       <use xlink:href="#DejaVuSans-30"/>
       <use x="63.623047" xlink:href="#DejaVuSans-2e"/>
       <use x="95.410156" xlink:href="#DejaVuSans-36"/>
       <use x="159.033203" xlink:href="#DejaVuSans-35"/>
      </g>
     </g>
    </g>
    <g id="text_14">
     <!-- Resolving Efficiency -->
     <defs>
      <path d="M 44.390625 34.1875 
Q 47.5625 33.109375 50.5625 29.59375 
Q 53.5625 26.078125 56.59375 19.921875 
L 66.609375 0 
L 56 0 
L 46.6875 18.703125 
Q 43.0625 26.03125 39.671875 28.421875 
Q 36.28125 30.8125 30.421875 30.8125 
L 19.671875 30.8125 
L 19.671875 0 
L 9.8125 0 
L 9.8125 72.90625 
L 32.078125 72.90625 
Q 44.578125 72.90625 50.734375 67.671875 
Q 56.890625 62.453125 56.890625 51.90625 
Q 56.890625 45.015625 53.6875 40.46875 
Q 50.484375 35.9375 44.390625 34.1875 
z
M 19.671875 64.796875 
L 19.671875 38.921875 
L 32.078125 38.921875 
Q 39.203125 38.921875 42.84375 42.21875 
Q 46.484375 45.515625 46.484375 51.90625 
Q 46.484375 58.296875 42.84375 61.546875 
Q 39.203125 64.796875 32.078125 64.796875 
z
" id="DejaVuSans-52"/>
      <path d="M 56.203125 29.59375 
L 56.203125 25.203125 
L 14.890625 25.203125 
Q 15.484375 15.921875 20.484375 11.0625 
Q 25.484375 6.203125 34.421875 6.203125 
Q 39.59375 6.203125 44.453125 7.46875 
Q 49.3125 8.734375 54.109375 11.28125 
L 54.109375 2.78125 
Q 49.265625 0.734375 44.1875 -0.34375 
Q 39.109375 -1.421875 33.890625 -1.421875 
Q 20.796875 -1.421875 13.15625 6.1875 
Q 5.515625 13.8125 5.515625 26.8125 
Q 5.515625 40.234375 12.765625 48.109375 
Q 20.015625 56 32.328125 56 
Q 43.359375 56 49.78125 48.890625 
Q 56.203125 41.796875 56.203125 29.59375 
z
M 47.21875 32.234375 
Q 47.125 39.59375 43.09375 43.984375 
Q 39.0625 48.390625 32.421875 48.390625 
Q 24.90625 48.390625 20.390625 44.140625 
Q 15.875 39.890625 15.1875 32.171875 
z
" id="DejaVuSans-65"/>
      <path d="M 44.28125 53.078125 
L 44.28125 44.578125 
Q 40.484375 46.53125 36.375 47.5 
Q 32.28125 48.484375 27.875 48.484375 
Q 21.1875 48.484375 17.84375 46.4375 
Q 14.5 44.390625 14.5 40.28125 
Q 14.5 37.15625 16.890625 35.375 
Q 19.28125 33.59375 26.515625 31.984375 
L 29.59375 31.296875 
Q 39.15625 29.25 43.1875 25.515625 
Q 47.21875 21.78125 47.21875 15.09375 
Q 47.21875 7.46875 41.1875 3.015625 
Q 35.15625 -1.421875 24.609375 -1.421875 
Q 20.21875 -1.421875 15.453125 -0.5625 
Q 10.6875 0.296875 5.421875 2 
L 5.421875 11.28125 
Q 10.40625 8.6875 15.234375 7.390625 
Q 20.0625 6.109375 24.8125 6.109375 
Q 31.15625 6.109375 34.5625 8.28125 
Q 37.984375 10.453125 37.984375 14.40625 
Q 37.984375 18.0625 35.515625 20.015625 
Q 33.0625 21.96875 24.703125 23.78125 
L 21.578125 24.515625 
Q 13.234375 26.265625 9.515625 29.90625 
Q 5.8125 33.546875 5.8125 39.890625 
Q 5.8125 47.609375 11.28125 51.796875 
Q 16.75 56 26.8125 56 
Q 31.78125 56 36.171875 55.265625 
Q 40.578125 54.546875 44.28125 53.078125 
z
" id="DejaVuSans-73"/>
      <path d="M 30.609375 48.390625 
Q 23.390625 48.390625 19.1875 42.75 
Q 14.984375 37.109375 14.984375 27.296875 
Q 14.984375 17.484375 19.15625 11.84375 
Q 23.34375 6.203125 30.609375 6.203125 
Q 37.796875 6.203125 41.984375 11.859375 
Q 46.1875 17.53125 46.1875 27.296875 
Q 46.1875 37.015625 41.984375 42.703125 
Q 37.796875 48.390625 30.609375 48.390625 
z
M 30.609375 56 
Q 42.328125 56 49.015625 48.375 
Q 55.71875 40.765625 55.71875 27.296875 
Q 55.71875 13.875 49.015625 6.21875 
Q 42.328125 -1.421875 30.609375 -1.421875 
Q 18.84375 -1.421875 12.171875 6.21875 
Q 5.515625 13.875 5.515625 27.296875 
Q 5.515625 40.765625 12.171875 48.375 
Q 18.84375 56 30.609375 56 
z
" id="DejaVuSans-6f"/>
      <path d="M 9.421875 75.984375 
L 18.40625 75.984375 
L 18.40625 0 
L 9.421875 0 
z
" id="DejaVuSans-6c"/>
      <path d="M 2.984375 54.6875 
L 12.5 54.6875 
L 29.59375 8.796875 
L 46.6875 54.6875 
L 56.203125 54.6875 
L 35.6875 0 
L 23.484375 0 
z
" id="DejaVuSans-76"/>
      <path d="M 9.421875 54.6875 
L 18.40625 54.6875 
L 18.40625 0 
L 9.421875 0 
z
M 9.421875 75.984375 
L 18.40625 75.984375 
L 18.40625 64.59375 
L 9.421875 64.59375 
z
" id="DejaVuSans-69"/>
      <path d="M 54.890625 33.015625 
L 54.890625 0 
L 45.90625 0 
L 45.90625 32.71875 
Q 45.90625 40.484375 42.875 44.328125 
Q 39.84375 48.1875 33.796875 48.1875 
Q 26.515625 48.1875 22.3125 43.546875 
Q 18.109375 38.921875 18.109375 30.90625 
L 18.109375 0 
L 9.078125 0 
L 9.078125 54.6875 
L 18.109375 54.6875 
L 18.109375 46.1875 
Q 21.34375 51.125 25.703125 53.5625 
Q 30.078125 56 35.796875 56 
Q 45.21875 56 50.046875 50.171875 
Q 54.890625 44.34375 54.890625 33.015625 
z
" id="DejaVuSans-6e"/>
      <path d="M 45.40625 27.984375 
Q 45.40625 37.75 41.375 43.109375 
Q 37.359375 48.484375 30.078125 48.484375 
Q 22.859375 48.484375 18.828125 43.109375 
Q 14.796875 37.75 14.796875 27.984375 
Q 14.796875 18.265625 18.828125 12.890625 
Q 22.859375 7.515625 30.078125 7.515625 
Q 37.359375 7.515625 41.375 12.890625 
Q 45.40625 18.265625 45.40625 27.984375 
z
M 54.390625 6.78125 
Q 54.390625 -7.171875 48.1875 -13.984375 
Q 42 -20.796875 29.203125 -20.796875 
Q 24.46875 -20.796875 20.265625 -20.09375 
Q 16.0625 -19.390625 12.109375 -17.921875 
L 12.109375 -9.1875 
Q 16.0625 -11.328125 19.921875 -12.34375 
Q 23.78125 -13.375 27.78125 -13.375 
Q 36.625 -13.375 41.015625 -8.765625 
Q 45.40625 -4.15625 45.40625 5.171875 
L 45.40625 9.625 
Q 42.625 4.78125 38.28125 2.390625 
Q 33.9375 0 27.875 0 
Q 17.828125 0 11.671875 7.65625 
Q 5.515625 15.328125 5.515625 27.984375 
Q 5.515625 40.671875 11.671875 48.328125 
Q 17.828125 56 27.875 56 
Q 33.9375 56 38.28125 53.609375 
Q 42.625 51.21875 45.40625 46.390625 
L 45.40625 54.6875 
L 54.390625 54.6875 
z
" id="DejaVuSans-67"/>
      <path id="DejaVuSans-20"/>
      <path d="M 9.8125 72.90625 
L 55.90625 72.90625 
L 55.90625 64.59375 
L 19.671875 64.59375 
L 19.671875 43.015625 
L 54.390625 43.015625 
L 54.390625 34.71875 
L 19.671875 34.71875 
L 19.671875 8.296875 
L 56.78125 8.296875 
L 56.78125 0 
L 9.8125 0 
z
" id="DejaVuSans-45"/>
      <path d="M 37.109375 75.984375 
L 37.109375 68.5 
L 28.515625 68.5 
Q 23.6875 68.5 21.796875 66.546875 
Q 19.921875 64.59375 19.921875 59.515625 
L 19.921875 54.6875 
L 34.71875 54.6875 
L 34.71875 47.703125 
L 19.921875 47.703125 
L 19.921875 0 
L 10.890625 0 
L 10.890625 47.703125 
L 2.296875 47.703125 
L 2.296875 54.6875 
L 10.890625 54.6875 
L 10.890625 58.5 
Q 10.890625 67.625 15.140625 71.796875 
Q 19.390625 75.984375 28.609375 75.984375 
z
" id="DejaVuSans-66"/>
      <path d="M 48.78125 52.59375 
L 48.78125 44.1875 
Q 44.96875 46.296875 41.140625 47.34375 
Q 37.3125 48.390625 33.40625 48.390625 
Q 24.65625 48.390625 19.8125 42.84375 
Q 14.984375 37.3125 14.984375 27.296875 
Q 14.984375 17.28125 19.8125 11.734375 
Q 24.65625 6.203125 33.40625 6.203125 
Q 37.3125 6.203125 41.140625 7.25 
Q 44.96875 8.296875 48.78125 10.40625 
L 48.78125 2.09375 
Q 45.015625 0.34375 40.984375 -0.53125 
Q 36.96875 -1.421875 32.421875 -1.421875 
Q 20.0625 -1.421875 12.78125 6.34375 
Q 5.515625 14.109375 5.515625 27.296875 
Q 5.515625 40.671875 12.859375 48.328125 
Q 20.21875 56 33.015625 56 
Q 37.15625 56 41.109375 55.140625 
Q 45.0625 54.296875 48.78125 52.59375 
z
" id="DejaVuSans-63"/>
      <path d="M 32.171875 -5.078125 
Q 28.375 -14.84375 24.75 -17.8125 
Q 21.140625 -20.796875 15.09375 -20.796875 
L 7.90625 -20.796875 
L 7.90625 -13.28125 
L 13.1875 -13.28125 
Q 16.890625 -13.28125 18.9375 -11.515625 
Q 21 -9.765625 23.484375 -3.21875 
L 25.09375 0.875 
L 2.984375 54.6875 
L 12.5 54.6875 
L 29.59375 11.921875 
L 46.6875 54.6875 
L 56.203125 54.6875 
z
" id="DejaVuSans-79"/>
     </defs>
     <g transform="translate(22.254687 224.570188)rotate(-90)scale(0.1 -0.1)">
      <use xlink:href="#DejaVuSans-52"/>
      <use x="69.419922" xlink:href="#DejaVuSans-65"/>
      <use x="130.943359" xlink:href="#DejaVuSans-73"/>
      <use x="183.042969" xlink:href="#DejaVuSans-6f"/>
      <use x="244.224609" xlink:href="#DejaVuSans-6c"/>
      <use x="272.007812" xlink:href="#DejaVuSans-76"/>
      <use x="331.1875" xlink:href="#DejaVuSans-69"/>
      <use x="358.970703" xlink:href="#DejaVuSans-6e"/>
      <use x="422.349609" xlink:href="#DejaVuSans-67"/>
      <use x="485.826172" xlink:href="#DejaVuSans-20"/>
      <use x="517.613281" xlink:href="#DejaVuSans-45"/>
      <use x="580.796875" xlink:href="#DejaVuSans-66"/>
      <use x="616.001953" xlink:href="#DejaVuSans-66"/>
      <use x="651.207031" xlink:href="#DejaVuSans-69"/>
      <use x="678.990234" xlink:href="#DejaVuSans-63"/>
      <use x="733.970703" xlink:href="#DejaVuSans-69"/>
      <use x="761.753906" xlink:href="#DejaVuSans-65"/>
      <use x="823.277344" xlink:href="#DejaVuSans-6e"/>
      <use x="886.65625" xlink:href="#DejaVuSans-63"/>
      <use x="941.636719" xlink:href="#DejaVuSans-79"/>
     </g>
    </g>
   </g>
   <g id="line2d_13">
    <path clip-path="url(#pf5e4075c4a)" d="M 57.6 212.544 
L 414.72 212.544 
" style="fill:none;stroke:#000000;stroke-dasharray:3.7,1.6;stroke-dashoffset:0;"/>
   </g>
   <g id="line2d_14">
    <path clip-path="url(#pf5e4075c4a)" d="M 73.832727 247.104 
L 88.589752 240.192 
L 103.346777 236.736 
L 118.103802 233.28 
L 132.860826 233.28 
L 147.617851 233.28 
L 162.374876 233.28 
L 177.131901 233.28 
L 191.888926 233.28 
L 206.64595 233.28 
L 221.402975 233.28 
L 236.16 233.28 
L 250.917025 233.28 
L 265.67405 233.28 
L 280.431074 233.28 
L 295.188099 233.28 
L 309.945124 233.28 
L 324.702149 233.28 
L 339.459174 233.28 
L 354.216198 233.28 
L 368.973223 233.28 
L 383.730248 233.28 
L 398.487273 233.28 
" style="fill:none;stroke:#1f77b4;stroke-linecap:square;"/>
    <defs>
     <path d="M 0 2 
C 0.530406 2 1.03916 1.789267 1.414214 1.414214 
C 1.789267 1.03916 2 0.530406 2 0 
C 2 -0.530406 1.789267 -1.03916 1.414214 -1.414214 
C 1.03916 -1.789267 0.530406 -2 0 -2 
C -0.530406 -2 -1.03916 -1.789267 -1.414214 -1.414214 
C -1.789267 -1.03916 -2 -0.530406 -2 0 
C -2 0.530406 -1.789267 1.03916 -1.414214 1.414214 
C -1.03916 1.789267 -0.530406 2 0 2 
z
" id="m9bd8da001b" style="stroke:#1f77b4;stroke-width:0.75;"/>
    </defs>
    <g clip-path="url(#pf5e4075c4a)">
     <use style="fill:#1f77b4;stroke:#1f77b4;stroke-width:0.75;" x="73.832727" xlink:href="#m9bd8da001b" y="247.104"/>
     <use style="fill:#1f77b4;stroke:#1f77b4;stroke-width:0.75;" x="88.589752" xlink:href="#m9bd8da001b" y="240.192"/>
     <use style="fill:#1f77b4;stroke:#1f77b4;stroke-width:0.75;" x="103.346777" xlink:href="#m9bd8da001b" y="236.736"/>
     <use style="fill:#1f77b4;stroke:#1f77b4;stroke-width:0.75;" x="118.103802" xlink:href="#m9bd8da001b" y="233.28"/>
     <use style="fill:#1f77b4;stroke:#1f77b4;stroke-width:0.75;" x="132.860826" xlink:href="#m9bd8da001b" y="233.28"/>
     <use style="fill:#1f77b4;stroke:#1f77b4;stroke-width:0.75;" x="147.617851" xlink:href="#m9bd8da001b" y="233.28"/>
     <use style="fill:#1f77b4;stroke:#1f77b4;stroke-width:0.75;" x="162.374876" xlink:href="#m9bd8da001b" y="233.28"/>
     <use style="fill:#1f77b4;stroke:#1f77b4;stroke-width:0.75;" x="177.131901" xlink:href="#m9bd8da001b" y="233.28"/>
     <use style="fill:#1f77b4;stroke:#1f77b4;stroke-width:0.75;" x="191.888926" xlink:href="#m9bd8da001b" y="233.28"/>
     <use style="fill:#1f77b4;stroke:#1f77b4;stroke-width:0.75;" x="206.64595" xlink:href="#m9bd8da001b" y="233.28"/>
     <use style="fill:#1f77b4;stroke:#1f77b4;stroke-width:0.75;" x="221.402975" xlink:href="#m9bd8da001b" y="233.28"/>
     <use style="fill:#1f77b4;stroke:#1f77b4;stroke-width:0.75;" x="236.16" xlink:href="#m9bd8da001b" y="233.28"/>
     <use style="fill:#1f77b4;stroke:#1f77b4;stroke-width:0.75;" x="250.917025" xlink:href="#m9bd8da001b" y="233.28"/>
     <use style="fill:#1f77b4;stroke:#1f77b4;stroke-width:0.75;" x="265.67405" xlink:href="#m9bd8da001b" y="233.28"/>
     <use style="fill:#1f77b4;stroke:#1f77b4;stroke-width:0.75;" x="280.431074" xlink:href="#m9bd8da001b" y="233.28"/>
     <use style="fill:#1f77b4;stroke:#1f77b4;stroke-width:0.75;" x="295.188099" xlink:href="#m9bd8da001b" y="233.28"/>
     <use style="fill:#1f77b4;stroke:#1f77b4;stroke-width:0.75;" x="309.945124" xlink:href="#m9bd8da001b" y="233.28"/>
     <use style="fill:#1f77b4;stroke:#1f77b4;stroke-width:0.75;" x="324.702149" xlink:href="#m9bd8da001b" y="233.28"/>
     <use style="fill:#1f77b4;stroke:#1f77b4;stroke-width:0.75;" x="339.459174" xlink:href="#m9bd8da001b" y="233.28"/>
     <use style="fill:#1f77b4;stroke:#1f77b4;stroke-width:0.75;" x="354.216198" xlink:href="#m9bd8da001b" y="233.28"/>
     <use style="fill:#1f77b4;stroke:#1f77b4;stroke-width:0.75;" x="368.973223" xlink:href="#m9bd8da001b" y="233.28"/>
     <use style="fill:#1f77b4;stroke:#1f77b4;stroke-width:0.75;" x="383.730248" xlink:href="#m9bd8da001b" y="233.28"/>
     <use style="fill:#1f77b4;stroke:#1f77b4;stroke-width:0.75;" x="398.487273" xlink:href="#m9bd8da001b" y="233.28"/>
    </g>
   </g>
   <g id="line2d_15">
    <path clip-path="url(#pf5e4075c4a)" d="M 73.832727 164.16 
L 88.589752 191.808 
L 103.346777 198.72 
L 118.103802 195.264 
L 132.860826 195.264 
L 147.617851 195.264 
L 162.374876 195.264 
L 177.131901 195.264 
L 191.888926 195.264 
L 206.64595 191.808 
L 221.402975 191.808 
L 236.16 191.808 
L 250.917025 191.808 
L 265.67405 191.808 
L 280.431074 278.208 
L 295.188099 285.12 
L 309.945124 288.576 
L 324.702149 292.032 
L 339.459174 292.032 
L 354.216198 295.488 
L 368.973223 295.488 
L 383.730248 295.488 
L 398.487273 295.488 
" style="fill:none;stroke:#ff7f0e;stroke-linecap:square;"/>
    <defs>
     <path d="M 0 -2 
L -2 2 
L 2 2 
z
" id="m5708856e08" style="stroke:#ff7f0e;stroke-linejoin:miter;stroke-width:0.75;"/>
    </defs>
    <g clip-path="url(#pf5e4075c4a)">
     <use style="fill:#ff7f0e;stroke:#ff7f0e;stroke-linejoin:miter;stroke-width:0.75;" x="73.832727" xlink:href="#m5708856e08" y="164.16"/>
     <use style="fill:#ff7f0e;stroke:#ff7f0e;stroke-linejoin:miter;stroke-width:0.75;" x="88.589752" xlink:href="#m5708856e08" y="191.808"/>
     <use style="fill:#ff7f0e;stroke:#ff7f0e;stroke-linejoin:miter;stroke-width:0.75;" x="103.346777" xlink:href="#m5708856e08" y="198.72"/>
     <use style="fill:#ff7f0e;stroke:#ff7f0e;stroke-linejoin:miter;stroke-width:0.75;" x="118.103802" xlink:href="#m5708856e08" y="195.264"/>
     <use style="fill:#ff7f0e;stroke:#ff7f0e;stroke-linejoin:miter;stroke-width:0.75;" x="132.860826" xlink:href="#m5708856e08" y="195.264"/>
     <use style="fill:#ff7f0e;stroke:#ff7f0e;stroke-linejoin:miter;stroke-width:0.75;" x="147.617851" xlink:href="#m5708856e08" y="195.264"/>
     <use style="fill:#ff7f0e;stroke:#ff7f0e;stroke-linejoin:miter;stroke-width:0.75;" x="162.374876" xlink:href="#m5708856e08" y="195.264"/>
     <use style="fill:#ff7f0e;stroke:#ff7f0e;stroke-linejoin:miter;stroke-width:0.75;" x="177.131901" xlink:href="#m5708856e08" y="195.264"/>
     <use style="fill:#ff7f0e;stroke:#ff7f0e;stroke-linejoin:miter;stroke-width:0.75;" x="191.888926" xlink:href="#m5708856e08" y="195.264"/>
     <use style="fill:#ff7f0e;stroke:#ff7f0e;stroke-linejoin:miter;stroke-width:0.75;" x="206.64595" xlink:href="#m5708856e08" y="191.808"/>
     <use style="fill:#ff7f0e;stroke:#ff7f0e;stroke-linejoin:miter;stroke-width:0.75;" x="221.402975" xlink:href="#m5708856e08" y="191.808"/>
     <use style="fill:#ff7f0e;stroke:#ff7f0e;stroke-linejoin:miter;stroke-width:0.75;" x="236.16" xlink:href="#m5708856e08" y="191.808"/>
     <use style="fill:#ff7f0e;stroke:#ff7f0e;stroke-linejoin:miter;stroke-width:0.75;" x="250.917025" xlink:href="#m5708856e08" y="191.808"/>
     <use style="fill:#ff7f0e;stroke:#ff7f0e;stroke-linejoin:miter;stroke-width:0.75;" x="265.67405" xlink:href="#m5708856e08" y="191.808"/>
     <use style="fill:#ff7f0e;stroke:#ff7f0e;stroke-linejoin:miter;stroke-width:0.75;" x="280.431074" xlink:href="#m5708856e08" y="278.208"/>
     <use style="fill:#ff7f0e;stroke:#ff7f0e;stroke-linejoin:miter;stroke-width:0.75;" x="295.188099" xlink:href="#m5708856e08" y="285.12"/>
     <use style="fill:#ff7f0e;stroke:#ff7f0e;stroke-linejoin:miter;stroke-width:0.75;" x="309.945124" xlink:href="#m5708856e08" y="288.576"/>
     <use style="fill:#ff7f0e;stroke:#ff7f0e;stroke-linejoin:miter;stroke-width:0.75;" x="324.702149" xlink:href="#m5708856e08" y="292.032"/>
     <use style="fill:#ff7f0e;stroke:#ff7f0e;stroke-linejoin:miter;stroke-width:0.75;" x="339.459174" xlink:href="#m5708856e08" y="292.032"/>
     <use style="fill:#ff7f0e;stroke:#ff7f0e;stroke-linejoin:miter;stroke-width:0.75;" x="354.216198" xlink:href="#m5708856e08" y="295.488"/>
     <use style="fill:#ff7f0e;stroke:#ff7f0e;stroke-linejoin:miter;stroke-width:0.75;" x="368.973223" xlink:href="#m5708856e08" y="295.488"/>
     <use style="fill:#ff7f0e;stroke:#ff7f0e;stroke-linejoin:miter;stroke-width:0.75;" x="383.730248" xlink:href="#m5708856e08" y="295.488"/>
     <use style="fill:#ff7f0e;stroke:#ff7f0e;stroke-linejoin:miter;stroke-width:0.75;" x="398.487273" xlink:href="#m5708856e08" y="295.488"/>
    </g>
   </g>
   <g id="line2d_16">
    <path clip-path="url(#pf5e4075c4a)" d="M 73.832727 98.496 
L 88.589752 139.968 
L 103.346777 153.792 
L 118.103802 157.248 
L 132.860826 160.704 
L 147.617851 160.704 
L 162.374876 70.848 
L 177.131901 67.392 
L 191.888926 63.936 
L 206.64595 63.936 
L 221.402975 63.936 
L 236.16 60.48 
L 250.917025 60.48 
L 265.67405 60.48 
L 280.431074 60.48 
L 295.188099 60.48 
L 309.945124 60.48 
L 324.702149 57.024 
L 339.459174 57.024 
L 354.216198 57.024 
L 368.973223 57.024 
L 383.730248 57.024 
L 398.487273 57.024 
" style="fill:none;stroke:#2ca02c;stroke-linecap:square;"/>
    <defs>
     <path d="M -2 2 
L 2 -2 
M -2 -2 
L 2 2 
" id="mbf3e89379a" style="stroke:#2ca02c;stroke-width:0.75;"/>
    </defs>
    <g clip-path="url(#pf5e4075c4a)">
     <use style="fill:#2ca02c;stroke:#2ca02c;stroke-width:0.75;" x="73.832727" xlink:href="#mbf3e89379a" y="98.496"/>
     <use style="fill:#2ca02c;stroke:#2ca02c;stroke-width:0.75;" x="88.589752" xlink:href="#mbf3e89379a" y="139.968"/>
     <use style="fill:#2ca02c;stroke:#2ca02c;stroke-width:0.75;" x="103.346777" xlink:href="#mbf3e89379a" y="153.792"/>
     <use style="fill:#2ca02c;stroke:#2ca02c;stroke-width:0.75;" x="118.103802" xlink:href="#mbf3e89379a" y="157.248"/>
     <use style="fill:#2ca02c;stroke:#2ca02c;stroke-width:0.75;" x="132.860826" xlink:href="#mbf3e89379a" y="160.704"/>
     <use style="fill:#2ca02c;stroke:#2ca02c;stroke-width:0.75;" x="147.617851" xlink:href="#mbf3e89379a" y="160.704"/>
     <use style="fill:#2ca02c;stroke:#2ca02c;stroke-width:0.75;" x="162.374876" xlink:href="#mbf3e89379a" y="70.848"/>
     <use style="fill:#2ca02c;stroke:#2ca02c;stroke-width:0.75;" x="177.131901" xlink:href="#mbf3e89379a" y="67.392"/>
     <use style="fill:#2ca02c;stroke:#2ca02c;stroke-width:0.75;" x="191.888926" xlink:href="#mbf3e89379a" y="63.936"/>
     <use style="fill:#2ca02c;stroke:#2ca02c;stroke-width:0.75;" x="206.64595" xlink:href="#mbf3e89379a" y="63.936"/>
     <use style="fill:#2ca02c;stroke:#2ca02c;stroke-width:0.75;" x="221.402975" xlink:href="#mbf3e89379a" y="63.936"/>
     <use style="fill:#2ca02c;stroke:#2ca02c;stroke-width:0.75;" x="236.16" xlink:href="#mbf3e89379a" y="60.48"/>
     <use style="fill:#2ca02c;stroke:#2ca02c;stroke-width:0.75;" x="250.917025" xlink:href="#mbf3e89379a" y="60.48"/>
     <use style="fill:#2ca02c;stroke:#2ca02c;stroke-width:0.75;" x="265.67405" xlink:href="#mbf3e89379a" y="60.48"/>
     <use style="fill:#2ca02c;stroke:#2ca02c;stroke-width:0.75;" x="280.431074" xlink:href="#mbf3e89379a" y="60.48"/>
     <use style="fill:#2ca02c;stroke:#2ca02c;stroke-width:0.75;" x="295.188099" xlink:href="#mbf3e89379a" y="60.48"/>
     <use style="fill:#2ca02c;stroke:#2ca02c;stroke-width:0.75;" x="309.945124" xlink:href="#mbf3e89379a" y="60.48"/>
     <use style="fill:#2ca02c;stroke:#2ca02c;stroke-width:0.75;" x="324.702149" xlink:href="#mbf3e89379a" y="57.024"/>
     <use style="fill:#2ca02c;stroke:#2ca02c;stroke-width:0.75;" x="339.459174" xlink:href="#mbf3e89379a" y="57.024"/>
     <use style="fill:#2ca02c;stroke:#2ca02c;stroke-width:0.75;" x="354.216198" xlink:href="#mbf3e89379a" y="57.024"/>
     <use style="fill:#2ca02c;stroke:#2ca02c;stroke-width:0.75;" x="368.973223" xlink:href="#mbf3e89379a" y="57.024"/>
     <use style="fill:#2ca02c;stroke:#2ca02c;stroke-width:0.75;" x="383.730248" xlink:href="#mbf3e89379a" y="57.024"/>
     <use style="fill:#2ca02c;stroke:#2ca02c;stroke-width:0.75;" x="398.487273" xlink:href="#mbf3e89379a" y="57.024"/>
    </g>
   </g>
   <g id="line2d_17">
    <path clip-path="url(#pf5e4075c4a)" d="M 73.832727 53.568 
L 88.589752 98.496 
L 103.346777 115.776 
L 118.103802 112.32 
L 132.860826 88.128 
L 147.617851 74.304 
L 162.374876 70.848 
L 177.131901 63.936 
L 191.888926 63.936 
L 206.64595 60.48 
L 221.402975 105.408 
L 236.16 112.32 
L 250.917025 119.232 
L 265.67405 122.688 
L 280.431074 126.144 
L 295.188099 129.6 
L 309.945124 133.056 
L 324.702149 133.056 
L 339.459174 133.056 
L 354.216198 136.512 
L 368.973223 136.512 
L 383.730248 136.512 
L 398.487273 139.968 
" style="fill:none;stroke:#d62728;stroke-linecap:square;"/>
    <defs>
     <path d="M -2 0 
L 2 0 
M 0 2 
L 0 -2 
" id="m83c9450ef3" style="stroke:#d62728;stroke-width:0.75;"/>
    </defs>
    <g clip-path="url(#pf5e4075c4a)">
     <use style="fill:#d62728;stroke:#d62728;stroke-width:0.75;" x="73.832727" xlink:href="#m83c9450ef3" y="53.568"/>
     <use style="fill:#d62728;stroke:#d62728;stroke-width:0.75;" x="88.589752" xlink:href="#m83c9450ef3" y="98.496"/>
     <use style="fill:#d62728;stroke:#d62728;stroke-width:0.75;" x="103.346777" xlink:href="#m83c9450ef3" y="115.776"/>
     <use style="fill:#d62728;stroke:#d62728;stroke-width:0.75;" x="118.103802" xlink:href="#m83c9450ef3" y="112.32"/>
     <use style="fill:#d62728;stroke:#d62728;stroke-width:0.75;" x="132.860826" xlink:href="#m83c9450ef3" y="88.128"/>
     <use style="fill:#d62728;stroke:#d62728;stroke-width:0.75;" x="147.617851" xlink:href="#m83c9450ef3" y="74.304"/>
     <use style="fill:#d62728;stroke:#d62728;stroke-width:0.75;" x="162.374876" xlink:href="#m83c9450ef3" y="70.848"/>
     <use style="fill:#d62728;stroke:#d62728;stroke-width:0.75;" x="177.131901" xlink:href="#m83c9450ef3" y="63.936"/>
     <use style="fill:#d62728;stroke:#d62728;stroke-width:0.75;" x="191.888926" xlink:href="#m83c9450ef3" y="63.936"/>
     <use style="fill:#d62728;stroke:#d62728;stroke-width:0.75;" x="206.64595" xlink:href="#m83c9450ef3" y="60.48"/>
     <use style="fill:#d62728;stroke:#d62728;stroke-width:0.75;" x="221.402975" xlink:href="#m83c9450ef3" y="105.408"/>
     <use style="fill:#d62728;stroke:#d62728;stroke-width:0.75;" x="236.16" xlink:href="#m83c9450ef3" y="112.32"/>
     <use style="fill:#d62728;stroke:#d62728;stroke-width:0.75;" x="250.917025" xlink:href="#m83c9450ef3" y="119.232"/>
     <use style="fill:#d62728;stroke:#d62728;stroke-width:0.75;" x="265.67405" xlink:href="#m83c9450ef3" y="122.688"/>
     <use style="fill:#d62728;stroke:#d62728;stroke-width:0.75;" x="280.431074" xlink:href="#m83c9450ef3" y="126.144"/>
     <use style="fill:#d62728;stroke:#d62728;stroke-width:0.75;" x="295.188099" xlink:href="#m83c9450ef3" y="129.6"/>
     <use style="fill:#d62728;stroke:#d62728;stroke-width:0.75;" x="309.945124" xlink:href="#m83c9450ef3" y="133.056"/>
     <use style="fill:#d62728;stroke:#d62728;stroke-width:0.75;" x="324.702149" xlink:href="#m83c9450ef3" y="133.056"/>
     <use style="fill:#d62728;stroke:#d62728;stroke-width:0.75;" x="339.459174" xlink:href="#m83c9450ef3" y="133.056"/>
     <use style="fill:#d62728;stroke:#d62728;stroke-width:0.75;" x="354.216198" xlink:href="#m83c9450ef3" y="136.512"/>
     <use style="fill:#d62728;stroke:#d62728;stroke-width:0.75;" x="368.973223" xlink:href="#m83c9450ef3" y="136.512"/>
     <use style="fill:#d62728;stroke:#d62728;stroke-width:0.75;" x="383.730248" xlink:href="#m83c9450ef3" y="136.512"/>
     <use style="fill:#d62728;stroke:#d62728;stroke-width:0.75;" x="398.487273" xlink:href="#m83c9450ef3" y="139.968"/>
    </g>
   </g>
   <g id="patch_3">
    <path d="M 57.6 307.584 
L 57.6 41.472 
" style="fill:none;stroke:#000000;stroke-linecap:square;stroke-linejoin:miter;stroke-width:0.8;"/>
   </g>
   <g id="patch_4">
    <path d="M 414.72 307.584 
L 414.72 41.472 
" style="fill:none;stroke:#000000;stroke-linecap:square;stroke-linejoin:miter;stroke-width:0.8;"/>
   </g>
   <g id="patch_5">
    <path d="M 57.6 307.584 
L 414.72 307.584 
" style="fill:none;stroke:#000000;stroke-linecap:square;stroke-linejoin:miter;stroke-width:0.8;"/>
   </g>
   <g id="patch_6">
    <path d="M 57.6 41.472 
L 414.72 41.472 
" style="fill:none;stroke:#000000;stroke-linecap:square;stroke-linejoin:miter;stroke-width:0.8;"/>
   </g>
   <g id="legend_1">
    <g id="patch_7">
     <path d="M 331.243438 122.862625 
L 407.72 122.862625 
Q 409.72 122.862625 409.72 120.862625 
L 409.72 48.472 
Q 409.72 46.472 407.72 46.472 
L 331.243438 46.472 
Q 329.243438 46.472 329.243438 48.472 
L 329.243438 120.862625 
Q 329.243438 122.862625 331.243438 122.862625 
z
" style="fill:#ffffff;opacity:0.8;stroke:#cccccc;stroke-linejoin:miter;"/>
    </g>
    <g id="line2d_18">
     <path d="M 333.243438 54.570438 
L 353.243438 54.570438 
" style="fill:none;stroke:#000000;stroke-dasharray:3.7,1.6;stroke-dashoffset:0;"/>
    </g>
    <g id="line2d_19"/>
    <g id="text_15">
     <!-- WENO-JS -->
     <defs>
      <path d="M 3.328125 72.90625 
L 13.28125 72.90625 
L 28.609375 11.28125 
L 43.890625 72.90625 
L 54.984375 72.90625 
L 70.3125 11.28125 
L 85.59375 72.90625 
L 95.609375 72.90625 
L 77.296875 0 
L 64.890625 0 
L 49.515625 63.28125 
L 33.984375 0 
L 21.578125 0 
z
" id="DejaVuSans-57"/>
      <path d="M 9.8125 72.90625 
L 23.09375 72.90625 
L 55.421875 11.921875 
L 55.421875 72.90625 
L 64.984375 72.90625 
L 64.984375 0 
L 51.703125 0 
L 19.390625 60.984375 
L 19.390625 0 
L 9.8125 0 
z
" id="DejaVuSans-4e"/>
      <path d="M 39.40625 66.21875 
Q 28.65625 66.21875 22.328125 58.203125 
Q 16.015625 50.203125 16.015625 36.375 
Q 16.015625 22.609375 22.328125 14.59375 
Q 28.65625 6.59375 39.40625 6.59375 
Q 50.140625 6.59375 56.421875 14.59375 
Q 62.703125 22.609375 62.703125 36.375 
Q 62.703125 50.203125 56.421875 58.203125 
Q 50.140625 66.21875 39.40625 66.21875 
z
M 39.40625 74.21875 
Q 54.734375 74.21875 63.90625 63.9375 
Q 73.09375 53.65625 73.09375 36.375 
Q 73.09375 19.140625 63.90625 8.859375 
Q 54.734375 -1.421875 39.40625 -1.421875 
Q 24.03125 -1.421875 14.8125 8.828125 
Q 5.609375 19.09375 5.609375 36.375 
Q 5.609375 53.65625 14.8125 63.9375 
Q 24.03125 74.21875 39.40625 74.21875 
z
" id="DejaVuSans-4f"/>
      <path d="M 4.890625 31.390625 
L 31.203125 31.390625 
L 31.203125 23.390625 
L 4.890625 23.390625 
z
" id="DejaVuSans-2d"/>
      <path d="M 9.8125 72.90625 
L 19.671875 72.90625 
L 19.671875 5.078125 
Q 19.671875 -8.109375 14.671875 -14.0625 
Q 9.671875 -20.015625 -1.421875 -20.015625 
L -5.171875 -20.015625 
L -5.171875 -11.71875 
L -2.09375 -11.71875 
Q 4.4375 -11.71875 7.125 -8.046875 
Q 9.8125 -4.390625 9.8125 5.078125 
z
" id="DejaVuSans-4a"/>
      <path d="M 53.515625 70.515625 
L 53.515625 60.890625 
Q 47.90625 63.578125 42.921875 64.890625 
Q 37.9375 66.21875 33.296875 66.21875 
Q 25.25 66.21875 20.875 63.09375 
Q 16.5 59.96875 16.5 54.203125 
Q 16.5 49.359375 19.40625 46.890625 
Q 22.3125 44.4375 30.421875 42.921875 
L 36.375 41.703125 
Q 47.40625 39.59375 52.65625 34.296875 
Q 57.90625 29 57.90625 20.125 
Q 57.90625 9.515625 50.796875 4.046875 
Q 43.703125 -1.421875 29.984375 -1.421875 
Q 24.8125 -1.421875 18.96875 -0.25 
Q 13.140625 0.921875 6.890625 3.21875 
L 6.890625 13.375 
Q 12.890625 10.015625 18.65625 8.296875 
Q 24.421875 6.59375 29.984375 6.59375 
Q 38.421875 6.59375 43.015625 9.90625 
Q 47.609375 13.234375 47.609375 19.390625 
Q 47.609375 24.75 44.3125 27.78125 
Q 41.015625 30.8125 33.5 32.328125 
L 27.484375 33.5 
Q 16.453125 35.6875 11.515625 40.375 
Q 6.59375 45.0625 6.59375 53.421875 
Q 6.59375 63.09375 13.40625 68.65625 
Q 20.21875 74.21875 32.171875 74.21875 
Q 37.3125 74.21875 42.625 73.28125 
Q 47.953125 72.359375 53.515625 70.515625 
z
" id="DejaVuSans-53"/>
     </defs>
     <g transform="translate(361.243438 58.070438)scale(0.1 -0.1)">
      <use xlink:href="#DejaVuSans-57"/>
      <use x="98.876953" xlink:href="#DejaVuSans-45"/>
      <use x="162.060547" xlink:href="#DejaVuSans-4e"/>
      <use x="236.865234" xlink:href="#DejaVuSans-4f"/>
      <use x="315.607422" xlink:href="#DejaVuSans-2d"/>
      <use x="351.769531" xlink:href="#DejaVuSans-4a"/>
      <use x="381.261719" xlink:href="#DejaVuSans-53"/>
     </g>
    </g>
    <g id="line2d_20">
     <path d="M 333.243438 69.248563 
L 353.243438 69.248563 
" style="fill:none;stroke:#1f77b4;stroke-linecap:square;"/>
    </g>
    <g id="line2d_21">
     <g>
      <use style="fill:#1f77b4;stroke:#1f77b4;stroke-width:0.75;" x="343.243438" xlink:href="#m9bd8da001b" y="69.248563"/>
     </g>
    </g>
    <g id="text_16">
     <!-- GP-R1 -->
     <defs>
      <path d="M 59.515625 10.40625 
L 59.515625 29.984375 
L 43.40625 29.984375 
L 43.40625 38.09375 
L 69.28125 38.09375 
L 69.28125 6.78125 
Q 63.578125 2.734375 56.6875 0.65625 
Q 49.8125 -1.421875 42 -1.421875 
Q 24.90625 -1.421875 15.25 8.5625 
Q 5.609375 18.5625 5.609375 36.375 
Q 5.609375 54.25 15.25 64.234375 
Q 24.90625 74.21875 42 74.21875 
Q 49.125 74.21875 55.546875 72.453125 
Q 61.96875 70.703125 67.390625 67.28125 
L 67.390625 56.78125 
Q 61.921875 61.421875 55.765625 63.765625 
Q 49.609375 66.109375 42.828125 66.109375 
Q 29.4375 66.109375 22.71875 58.640625 
Q 16.015625 51.171875 16.015625 36.375 
Q 16.015625 21.625 22.71875 14.15625 
Q 29.4375 6.6875 42.828125 6.6875 
Q 48.046875 6.6875 52.140625 7.59375 
Q 56.25 8.5 59.515625 10.40625 
z
" id="DejaVuSans-47"/>
      <path d="M 19.671875 64.796875 
L 19.671875 37.40625 
L 32.078125 37.40625 
Q 38.96875 37.40625 42.71875 40.96875 
Q 46.484375 44.53125 46.484375 51.125 
Q 46.484375 57.671875 42.71875 61.234375 
Q 38.96875 64.796875 32.078125 64.796875 
z
M 9.8125 72.90625 
L 32.078125 72.90625 
Q 44.34375 72.90625 50.609375 67.359375 
Q 56.890625 61.8125 56.890625 51.125 
Q 56.890625 40.328125 50.609375 34.8125 
Q 44.34375 29.296875 32.078125 29.296875 
L 19.671875 29.296875 
L 19.671875 0 
L 9.8125 0 
z
" id="DejaVuSans-50"/>
     </defs>
     <g transform="translate(361.243438 72.748563)scale(0.1 -0.1)">
      <use xlink:href="#DejaVuSans-47"/>
      <use x="77.490234" xlink:href="#DejaVuSans-50"/>
      <use x="137.761719" xlink:href="#DejaVuSans-2d"/>
      <use x="173.845703" xlink:href="#DejaVuSans-52"/>
      <use x="243.328125" xlink:href="#DejaVuSans-31"/>
     </g>
    </g>
    <g id="line2d_22">
     <path d="M 333.243438 83.926688 
L 353.243438 83.926688 
" style="fill:none;stroke:#ff7f0e;stroke-linecap:square;"/>
    </g>
    <g id="line2d_23">
     <g>
      <use style="fill:#ff7f0e;stroke:#ff7f0e;stroke-linejoin:miter;stroke-width:0.75;" x="343.243438" xlink:href="#m5708856e08" y="83.926688"/>
     </g>
    </g>
    <g id="text_17">
     <!-- GP-R2 -->
     <g transform="translate(361.243438 87.426688)scale(0.1 -0.1)">
      <use xlink:href="#DejaVuSans-47"/>
      <use x="77.490234" xlink:href="#DejaVuSans-50"/>
      <use x="137.761719" xlink:href="#DejaVuSans-2d"/>
      <use x="173.845703" xlink:href="#DejaVuSans-52"/>
      <use x="243.328125" xlink:href="#DejaVuSans-32"/>
     </g>
    </g>
    <g id="line2d_24">
     <path d="M 333.243438 98.604813 
L 353.243438 98.604813 
" style="fill:none;stroke:#2ca02c;stroke-linecap:square;"/>
    </g>
    <g id="line2d_25">
     <g>
      <use style="fill:#2ca02c;stroke:#2ca02c;stroke-width:0.75;" x="343.243438" xlink:href="#mbf3e89379a" y="98.604813"/>
     </g>
    </g>
    <g id="text_18">
     <!-- GP-R3 -->
     <defs>
      <path d="M 40.578125 39.3125 
Q 47.65625 37.796875 51.625 33 
Q 55.609375 28.21875 55.609375 21.1875 
Q 55.609375 10.40625 48.1875 4.484375 
Q 40.765625 -1.421875 27.09375 -1.421875 
Q 22.515625 -1.421875 17.65625 -0.515625 
Q 12.796875 0.390625 7.625 2.203125 
L 7.625 11.71875 
Q 11.71875 9.328125 16.59375 8.109375 
Q 21.484375 6.890625 26.8125 6.890625 
Q 36.078125 6.890625 40.9375 10.546875 
Q 45.796875 14.203125 45.796875 21.1875 
Q 45.796875 27.640625 41.28125 31.265625 
Q 36.765625 34.90625 28.71875 34.90625 
L 20.21875 34.90625 
L 20.21875 43.015625 
L 29.109375 43.015625 
Q 36.375 43.015625 40.234375 45.921875 
Q 44.09375 48.828125 44.09375 54.296875 
Q 44.09375 59.90625 40.109375 62.90625 
Q 36.140625 65.921875 28.71875 65.921875 
Q 24.65625 65.921875 20.015625 65.03125 
Q 15.375 64.15625 9.8125 62.3125 
L 9.8125 71.09375 
Q 15.4375 72.65625 20.34375 73.4375 
Q 25.25 74.21875 29.59375 74.21875 
Q 40.828125 74.21875 47.359375 69.109375 
Q 53.90625 64.015625 53.90625 55.328125 
Q 53.90625 49.265625 50.4375 45.09375 
Q 46.96875 40.921875 40.578125 39.3125 
z
" id="DejaVuSans-33"/>
     </defs>
     <g transform="translate(361.243438 102.104813)scale(0.1 -0.1)">
      <use xlink:href="#DejaVuSans-47"/>
      <use x="77.490234" xlink:href="#DejaVuSans-50"/>
      <use x="137.761719" xlink:href="#DejaVuSans-2d"/>
      <use x="173.845703" xlink:href="#DejaVuSans-52"/>
      <use x="243.328125" xlink:href="#DejaVuSans-33"/>
     </g>
    </g>
    <g id="line2d_26">
     <path d="M 333.243438 113.282938 
L 353.243438 113.282938 
" style="fill:none;stroke:#d62728;stroke-linecap:square;"/>
    </g>
    <g id="line2d_27">
     <g>
      <use style="fill:#d62728;stroke:#d62728;stroke-width:0.75;" x="343.243438" xlink:href="#m83c9450ef3" y="113.282938"/>
     </g>
    </g>
    <g id="text_19">
     <!-- GP-R4 -->
     <g transform="translate(361.243438 116.782938)scale(0.1 -0.1)">
      <use xlink:href="#DejaVuSans-47"/>
      <use x="77.490234" xlink:href="#DejaVuSans-50"/>
      <use x="137.761719" xlink:href="#DejaVuSans-2d"/>
      <use x="173.845703" xlink:href="#DejaVuSans-52"/>
      <use x="243.328125" xlink:href="#DejaVuSans-34"/>
     </g>
    </g>
   </g>
  </g>
 </g>
 <defs>
  <clipPath id="pf5e4075c4a">
   <rect height="266.112" width="357.12" x="57.6" y="41.472"/>
  </clipPath>
 </defs>
</svg>
